<?xml version="1.0" encoding="UTF-8"?>
<svg width="50px" height="50px" viewBox="0 0 50 50" version="1.1" xmlns="http://www.w3.org/2000/svg" xmlns:xlink="http://www.w3.org/1999/xlink">
   <g id="Symbols" stroke="none" stroke-width="1" fill="none" fill-rule="evenodd" opacity="0.9">
        <g id="video-card" transform="translate(-100.000000, -61.000000)" fill="#FFFFFF" fill-rule="nonzero">
            <g id="blog-card">
                <g id="button-circle-play" transform="translate(100.000000, 61.000000)">
                    <path d="M25,0 C11.215625,0 0,11.215625 0,25 C0,38.784375 11.215625,50 25,50 C38.784375,50 50,38.784375 50,25 C50,11.215625 38.784375,0 25,0 Z M36.7765625,26.31875 L19.5890625,37.25625 C19.3328125,37.4171875 19.0421875,37.5 18.75,37.5 C18.4921875,37.5 18.2328125,37.4359375 17.9984375,37.3078125 C17.4984375,37.0328125 17.1875,36.5078125 17.1875,35.9375 L17.1875,14.0625 C17.1875,13.4921875 17.4984375,12.9671875 17.9984375,12.6921875 C18.4984375,12.41875 19.1078125,12.4390625 19.590625,12.74375 L36.778125,23.68125 C37.2265625,23.96875 37.5,24.465625 37.5,25 C37.5,25.534375 37.2265625,26.03125 36.7765625,26.31875 Z" id="Shape"></path>
                </g>
            </g>
        </g>
    </g>
</svg>