<?xml version="1.0" encoding="utf-8"?>
<!-- Generator: Adobe Illustrator 16.0.0, SVG Export Plug-In . SVG Version: 6.00 Build 0)  -->
<!DOCTYPE svg PUBLIC "-//W3C//DTD SVG 1.1//EN" "http://www.w3.org/Graphics/SVG/1.1/DTD/svg11.dtd">
<svg version="1.1" id="Layer_1" xmlns="http://www.w3.org/2000/svg" xmlns:xlink="http://www.w3.org/1999/xlink" x="0px" y="0px"
	 width="100px" height="29.674px" viewBox="50 14.837 100 29.674" enable-background="new 50 14.837 100 29.674"
	 xml:space="preserve">
<g>
	<path fill="#172C76" d="M71.372,16.547c0.555,0.088,1.11,0.173,1.664,0.264c0.366,0.06,0.736,0.106,1.095,0.194
		c2.524,0.622,3.677,2.08,3.641,4.689C77.76,22.5,77.62,23.307,77.5,24.108c-0.021,0.137-0.242,0.346-0.372,0.347
		c-1.603,0.025-3.204,0.017-4.806,0.017c-0.253,0-0.506,0-0.787,0c0.046-0.257,0.094-0.459,0.118-0.663
		c0.131-1.123-0.272-1.841-1.374-2.07c-2.249-0.468-4.516-0.51-6.755,0.096c-1.129,0.306-1.927,1.057-2.309,2.141
		c-0.414,1.175-0.76,2.382-1.024,3.6c-0.436,2.015-0.83,4.042-1.154,6.078c-0.373,2.344,0.15,3.066,2.472,3.564
		c1.748,0.375,3.5,0.343,5.246-0.052c1.356-0.308,2.281-1.098,2.717-2.422c0.188-0.571,0.318-1.16,0.495-1.736
		c0.173-0.562-0.047-0.721-0.595-0.718c-2.182,0.012-4.365-0.021-6.546-0.004c-0.544,0.004-0.736-0.089-0.577-0.689
		c0.255-0.962,0.438-1.945,0.604-2.927c0.067-0.401,0.208-0.538,0.622-0.536c4.226,0.014,8.452,0.008,12.677,0.01
		c0.266,0,0.588-0.09,0.481,0.403c-0.507,2.332-0.896,4.694-1.519,6.994c-1.156,4.265-3.33,6.026-7.711,6.51
		c-0.583,0.064-1.162,0.182-1.742,0.274c-1.858,0-3.716,0-5.574,0c-0.733-0.138-1.464-0.284-2.2-0.41
		c-3.25-0.552-4.364-1.664-4.901-4.893c-0.016-0.095-0.094-0.181-0.144-0.271c0-0.697,0-1.394,0-2.09
		c0.044-0.072,0.121-0.139,0.129-0.213c0.383-3.779,1.387-7.419,2.521-11.022c1.166-3.704,3.68-5.908,7.532-6.547
		c0.602-0.099,1.2-0.22,1.8-0.331C67.006,16.547,69.189,16.547,71.372,16.547z"/>
	<path fill="#ED3225" d="M83.633,42.323c-0.712-0.137-1.422-0.284-2.136-0.41c-3.404-0.596-4.766-2.302-4.302-5.729
		c0.348-2.565,0.928-5.102,1.434-7.644c0.031-0.159,0.323-0.381,0.495-0.382c4.294-0.021,8.588-0.013,12.882-0.022
		c0.387-0.001,0.396,0.139,0.325,0.46c-0.231,1.041-0.44,2.086-0.63,3.135c-0.075,0.411-0.253,0.558-0.688,0.555
		c-2.228-0.016-4.456,0.018-6.683,0.001c-0.559-0.003-0.864,0.146-0.9,0.75c-0.043,0.737-0.191,1.471-0.203,2.208
		c-0.014,0.851,0.424,1.506,1.236,1.749c2.674,0.801,5.332,0.696,7.848-0.534c0.574-0.279,1.061-0.993,1.314-1.618
		c0.458-1.129,0.767-2.329,1.032-3.522c0.436-1.968,0.825-3.947,1.166-5.934c0.446-2.606-0.284-3.652-2.905-3.846
		c-1.673-0.124-3.381-0.002-5.053,0.19c-1.303,0.149-2.156,0.989-2.437,2.34c-0.033,0.161-0.308,0.384-0.475,0.386
		c-1.694,0.029-3.389,0.011-5.083,0.023c-0.349,0.003-0.457-0.086-0.338-0.437c0.326-0.963,0.551-1.97,0.964-2.894
		c1.217-2.731,3.51-3.944,6.352-4.328c0.51-0.069,1.016-0.181,1.523-0.274c2.322,0,4.645,0,6.966,0
		c0.438,0.093,0.874,0.208,1.315,0.274c3.644,0.551,5.409,2.484,5.182,6.142c-0.263,4.188-0.882,8.343-2.313,12.325
		c-0.188,0.521-0.432,1.024-0.668,1.527c-1.395,2.953-3.672,4.7-6.95,5.099c-0.81,0.099-1.611,0.271-2.417,0.409
		C87.534,42.323,85.584,42.323,83.633,42.323z"/>
	<path fill="#162C75" d="M147.027,22.955c-0.135,0.432-0.301,0.856-0.391,1.296c-0.08,0.39-0.252,0.522-0.657,0.516
		c-1.485-0.024-2.97-0.021-4.456-0.001c-0.396,0.005-0.569-0.096-0.457-0.506c0.018-0.067,0.026-0.136,0.038-0.205
		c0.286-1.729,0.04-2.124-1.666-2.431c-1.686-0.305-3.373-0.264-5.03,0.209c-1.592,0.454-2.72,2.597-2.085,4.111
		c0.165,0.394,0.702,0.802,1.129,0.885c1.176,0.229,2.387,0.283,3.581,0.416c1.702,0.19,3.429,0.269,5.099,0.616
		c2.441,0.508,3.478,1.965,3.332,4.459c-0.116,1.98-0.584,3.893-1.412,5.703c-0.873,1.912-2.303,3.208-4.384,3.617
		c-4.113,0.811-8.261,0.835-12.379,0.116c-2.276-0.398-3.2-1.681-3.137-3.977c0.03-1.082,0.248-2.159,0.371-3.241
		c0.037-0.328,0.168-0.456,0.527-0.45c1.509,0.022,3.019,0.024,4.526,0.001c0.438-0.008,0.527,0.144,0.404,0.521
		c-0.035,0.109-0.056,0.226-0.073,0.34c-0.318,2.079,0.029,2.604,2.121,2.854c1.783,0.213,3.571,0.113,5.306-0.418
		c1.595-0.49,2.688-2.627,2.233-4.256c-0.2-0.718-0.719-1.022-1.368-1.1c-1.126-0.135-2.263-0.188-3.393-0.298
		c-1.796-0.175-3.615-0.245-5.382-0.584c-2.277-0.437-3.156-1.648-3.178-3.963c-0.022-2.348,0.601-4.531,1.708-6.59
		c0.945-1.759,2.54-2.608,4.386-3.002c3.367-0.72,6.774-0.729,10.174-0.271c2.106,0.284,3.826,1.188,4.512,3.406
		C147.027,21.469,147.027,22.213,147.027,22.955z"/>
	<path fill="#172C75" d="M111.339,36.976c0.572-1.152,1.138-2.309,1.722-3.454c2.664-5.222,5.337-10.438,7.989-15.664
		c0.196-0.386,0.413-0.524,0.845-0.518c1.757,0.026,3.516,0.011,5.348,0.011c-0.119,0.259-0.197,0.447-0.29,0.627
		c-3.994,7.793-7.995,15.583-11.974,23.383c-0.259,0.505-0.555,0.674-1.116,0.665c-2.437-0.032-4.876-0.034-7.313,0.001
		c-0.588,0.009-0.719-0.193-0.77-0.74c-0.524-5.661-1.079-11.32-1.622-16.979c-0.201-2.101-0.379-4.206-0.597-6.306
		c-0.053-0.507,0.05-0.68,0.603-0.666c1.555,0.042,3.111,0.025,4.667,0.008c0.389-0.004,0.553,0.07,0.596,0.518
		c0.521,5.521,1.075,11.04,1.611,16.559c0.082,0.842,0.123,1.688,0.184,2.531C111.262,36.959,111.301,36.968,111.339,36.976z"/>
</g>
</svg>
