<svg width="30px" height="24px" viewBox="0 0 30 24" version="1.1" xmlns="http://www.w3.org/2000/svg" xmlns:xlink="http://www.w3.org/1999/xlink">
    <g id="Newsletter" stroke="none" stroke-width="1" fill="none" fill-rule="evenodd">
        <g id="GAVel-Newsletter" transform="translate(-237.000000, -573.000000)" fill="#00B2E5" fill-rule="nonzero">
            <g id="Content" transform="translate(236.000000, 493.000000)">
                <g id="quote" transform="translate(0.000000, 80.000000)">
                    <path d="M12.74302,22.15643 C9.95482,24.74885 5.20647,24.0634 2.98324,21.31844 C0.35196,18.07652 -0.17343,11.93211 4.41061,6.43576 C6.68435,3.7095 9.42458,1.64246 12.62849,0.23464 L14.10614,2.61453 C9.54847,4.82309 6.14195,7.81755 5.65921,12.83799 C7.71558,12.83799 9.4217,12.7635 10.94133,13.30726 C12.67144,13.92634 13.72233,15.07448 14.15362,16.39106 C14.8378,18.45246 14.50614,20.5171 12.74302,22.15643 Z M29.26816,22.15643 C26.47996,24.74885 21.73161,24.0634 19.50838,21.31844 C16.8771,18.07652 16.35171,11.93211 20.93576,6.43576 C23.2095,3.7095 25.94973,1.64246 29.15364,0.23464 L30.63129,2.61453 C26.07362,4.82309 22.6671,7.81755 22.18436,12.83799 C24.24073,12.83799 25.94685,12.7635 27.46648,13.30726 C29.19659,13.92634 30.24748,15.07448 30.67877,16.39106 C31.36294,18.45246 31.03128,20.5171 29.26816,22.15643 Z" id="Shape"></path>
                </g>
            </g>
        </g>
    </g>
</svg>